# xmcd
#
# Track frame offsets:
# 150
# 20004
# 35070
# 51106
# 70659
# 86601
# 100402
# 120368
# 138342
# 155300
# 171591
# 195423
# 209141
# 222937
#
# Disc length: 3163 seconds
#
#
# Revision: 0
# Processed by: cddbd v1.5.2PL0 Copyright (c) Steve Scherf et al.
# Submitted via: FreeRIP 2.951 
#
DISCID=cb0c590e
DTITLE=Funky Nashville - Hitch a Ride
DYEAR=1900
DGENRE=
TTITLE0=Hitch a Ride
TTITLE1=Gone Away
TTITLE2=Mexican Stars
TTITLE3=Ain't No Cowboy
TTITLE4=California Mansion Girl
TTITLE5=El Paso Bound
TTITLE6=Red River
TTITLE7=My Corazon
TTITLE8=La Luna
TTITLE9=Eerie Old Town
TTITLE10=Love
TTITLE11=Everything We Do
TTITLE12=Searching for Love
TTITLE13=The Witch Queen of New Orleans
EXTD=
EXTT0=
EXTT1=
EXTT2=
EXTT3=
EXTT4=
EXTT5=
EXTT6=
EXTT7=
EXTT8=
EXTT9=
EXTT10=
EXTT11=
EXTT12=
EXTT13=
PLAYORDER=
